<svg width="30" height="30" viewBox="0 0 30 30" fill="none" xmlns="http://www.w3.org/2000/svg">
<g clip-path="url(#clip0_133_21)">
<path d="M5.3125 2.41805e-06H24.6875C25.3853 -0.000672159 26.0764 0.139803 26.7213 0.413387C27.3661 0.686972 27.952 1.0883 28.4455 1.59439C28.9389 2.10048 29.3302 2.70141 29.597 3.36279C29.8637 4.02416 30.0007 4.73299 30 5.44872V24.5513C30.0007 25.267 29.8637 25.9758 29.597 26.6372C29.3302 27.2986 28.9389 27.8995 28.4455 28.4056C27.952 28.9117 27.3661 29.313 26.7213 29.5866C26.0764 29.8602 25.3853 30.0007 24.6875 30H5.3125C4.61467 30.0007 3.92356 29.8602 3.27872 29.5866C2.63388 29.313 2.04797 28.9117 1.55453 28.4056C1.06109 27.8995 0.669798 27.2986 0.403053 26.6372C0.136308 25.9758 -0.000655355 25.267 2.35759e-06 24.5513V5.44872C-0.000655355 4.73299 0.136308 4.02416 0.403053 3.36279C0.669798 2.70141 1.06109 2.10048 1.55453 1.59439C2.04797 1.0883 2.63388 0.686972 3.27872 0.413387C3.92356 0.139803 4.61467 -0.000672159 5.3125 2.41805e-06Z" fill="#000B1D"/>
<path d="M12.125 24.15C13.8509 24.15 15.25 22.7509 15.25 21.025V17.9H12.125C10.3991 17.9 9 19.2991 9 21.025C9 22.7509 10.3991 24.15 12.125 24.15Z" fill="#0ACF83"/>
<path d="M9 14.775C9 13.0491 10.3991 11.65 12.125 11.65H15.25V17.9H12.125C10.3991 17.9 9 16.5009 9 14.775Z" fill="#A259FF"/>
<path d="M9 8.52502C9 6.79913 10.3991 5.40002 12.125 5.40002H15.25V11.65H12.125C10.3991 11.65 9 10.2509 9 8.52502Z" fill="#F24E1E"/>
<path d="M15.25 5.40002H18.375C20.1009 5.40002 21.5 6.79913 21.5 8.52502C21.5 10.2509 20.1009 11.65 18.375 11.65H15.25V5.40002Z" fill="#FF7262"/>
<path d="M21.5 14.775C21.5 16.5009 20.1009 17.9 18.375 17.9C16.6491 17.9 15.25 16.5009 15.25 14.775C15.25 13.0491 16.6491 11.65 18.375 11.65C20.1009 11.65 21.5 13.0491 21.5 14.775Z" fill="#1ABCFE"/>
</g>
<defs>
<clipPath id="clip0_133_21">
<rect width="30" height="30" fill="white"/>
</clipPath>
</defs>
</svg>
