<svg width="22" height="22" viewBox="0 0 22 22" fill="none" xmlns="http://www.w3.org/2000/svg">
<path d="M6.41667 8.25016L9.85417 11.0002C10.1793 11.2605 10.5835 11.4024 11 11.4024C11.4165 11.4024 11.8207 11.2605 12.1458 11.0002L15.5833 8.25016M19.25 15.5835V6.41683C19.25 5.9306 19.0568 5.46428 18.713 5.12047C18.3692 4.77665 17.9029 4.5835 17.4167 4.5835H4.58333C4.0971 4.5835 3.63079 4.77665 3.28697 5.12047C2.94315 5.46428 2.75 5.9306 2.75 6.41683V15.5835C2.75 16.0697 2.94315 16.536 3.28697 16.8799C3.63079 17.2237 4.0971 17.4168 4.58333 17.4168H17.4167C17.9029 17.4168 18.3692 17.2237 18.713 16.8799C19.0568 16.536 19.25 16.0697 19.25 15.5835Z" stroke="#7A67F0" stroke-width="2" stroke-linecap="round" stroke-linejoin="round"/>
</svg>
