<svg width="28" height="28" viewBox="0 0 28 28" fill="none" xmlns="http://www.w3.org/2000/svg">
<path d="M25.27 12.1801L24.1267 17.0568C23.1467 21.2684 21.21 22.9718 17.57 22.6218C16.9867 22.5751 16.3567 22.4701 15.68 22.3068L13.72 21.8401C8.85501 20.6851 7.35001 18.2818 8.49334 13.4051L9.63667 8.51676C9.87001 7.52509 10.15 6.66176 10.5 5.95009C11.865 3.12676 14.1867 2.36842 18.0833 3.29009L20.0317 3.74509C24.92 4.88842 26.4133 7.30342 25.27 12.1801Z" stroke="white" stroke-width="2.5" stroke-linecap="round" stroke-linejoin="round"/>
<path d="M17.57 22.6216C16.8467 23.1116 15.9367 23.5199 14.8284 23.8816L12.985 24.4883C8.35337 25.9816 5.91503 24.7333 4.41003 20.1016L2.9167 15.4933C1.42337 10.8616 2.66003 8.41162 7.2917 6.91828L9.13503 6.31162C9.61337 6.15995 10.0684 6.03162 10.5 5.94995C10.15 6.66162 9.87003 7.52495 9.6367 8.51662L8.49337 13.405C7.35003 18.2816 8.85503 20.6849 13.72 21.8399L15.68 22.3066C16.3567 22.47 16.9867 22.5749 17.57 22.6216Z" stroke="white" stroke-width="2.5" stroke-linecap="round" stroke-linejoin="round"/>
<path d="M14.7467 9.95166L20.405 11.3867" stroke="white" stroke-width="2.5" stroke-linecap="round" stroke-linejoin="round"/>
<path d="M13.6034 14.4666L16.9867 15.3299" stroke="white" stroke-width="2.5" stroke-linecap="round" stroke-linejoin="round"/>
</svg>
