<svg width="22" height="22" viewBox="0 0 22 22" fill="none" xmlns="http://www.w3.org/2000/svg">
<path d="M15.2166 5.335C14.59 4.61965 14.2446 3.70098 14.2449 2.75H11.4124V14.1167C11.3906 14.7318 11.1309 15.3144 10.688 15.7419C10.2452 16.1693 9.65373 16.4082 9.03823 16.4083C7.73657 16.4083 6.6549 15.345 6.6549 14.025C6.6549 12.4483 8.17657 11.2658 9.74407 11.7517V8.855C6.58157 8.43333 3.81323 10.89 3.81323 14.025C3.81323 17.0775 6.34323 19.25 9.02907 19.25C11.9074 19.25 14.2449 16.9125 14.2449 14.025V8.25917C15.3935 9.08403 16.7725 9.52659 18.1866 9.52417V6.69167C18.1866 6.69167 16.4632 6.77417 15.2166 5.335Z" fill="#7A67F0"/>
</svg>
