<svg width="38" height="38" viewBox="0 0 38 38" fill="none" xmlns="http://www.w3.org/2000/svg">
<path d="M9.3125 4H28.6875C29.3853 3.99933 30.0764 4.1398 30.7213 4.41339C31.3661 4.68697 31.952 5.0883 32.4455 5.59439C32.9389 6.10048 33.3302 6.70141 33.5969 7.36279C33.8637 8.02416 34.0007 8.73299 34 9.44872V28.5513C34.0007 29.267 33.8637 29.9758 33.5969 30.6372C33.3302 31.2986 32.9389 31.8995 32.4455 32.4056C31.952 32.9117 31.3661 33.313 30.7213 33.5866C30.0764 33.8602 29.3853 34.0007 28.6875 34H9.3125C8.61467 34.0007 7.92356 33.8602 7.27872 33.5866C6.63388 33.313 6.04797 32.9117 5.55453 32.4056C5.06109 31.8995 4.6698 31.2986 4.40305 30.6372C4.13631 29.9758 3.99934 29.267 4 28.5513V9.44872C3.99934 8.73299 4.13631 8.02416 4.40305 7.36279C4.6698 6.70141 5.06109 6.10048 5.55453 5.59439C6.04797 5.0883 6.63388 4.68697 7.27872 4.41339C7.92356 4.1398 8.61467 3.99933 9.3125 4Z" fill="#000B1D"/>
<path d="M28.6674 10.8427L24.3801 8.7785C23.8839 8.53956 23.2908 8.64035 22.9014 9.0298L8.86659 21.8263C8.48909 22.1704 8.48952 22.7648 8.86752 23.1084L10.0139 24.1506C10.323 24.4315 10.7884 24.4522 11.1211 24.1998L28.0223 11.3782C28.5893 10.9481 29.4037 11.3525 29.4037 12.0642V12.0144C29.4037 11.5149 29.1175 11.0594 28.6674 10.8427Z" fill="#0065A9"/>
<g filter="url(#filter0_d_133_58)">
<path d="M28.6674 27.1572L24.3801 29.2215C23.8839 29.4604 23.2908 29.3596 22.9014 28.9702L8.86659 16.1737C8.48909 15.8295 8.48952 15.2352 8.86752 14.8916L10.0139 13.8494C10.323 13.5684 10.7884 13.5477 11.1211 13.8002L28.0223 26.6217C28.5893 27.0519 29.4037 26.6475 29.4037 25.9358V25.9856C29.4037 26.4851 29.1175 26.9405 28.6674 27.1572Z" fill="#007ACC"/>
</g>
<g filter="url(#filter1_d_133_58)">
<path d="M24.3803 29.2219C23.8839 29.4607 23.2909 29.3597 22.9014 28.9702C23.3813 29.4501 24.2018 29.1102 24.2018 28.4315V9.56854C24.2018 8.88986 23.3813 8.54997 22.9014 9.02987C23.2909 8.64038 23.8839 8.53945 24.3803 8.77817L28.6668 10.8396C29.1172 11.0562 29.4036 11.5117 29.4036 12.0115V25.9886C29.4036 26.4884 29.1172 26.944 28.6668 27.1606L24.3803 29.2219Z" fill="#1F9CF0"/>
</g>
<g style="mix-blend-mode:overlay" opacity="0.25">
<path style="mix-blend-mode:overlay" fill-rule="evenodd" clip-rule="evenodd" d="M23.3386 29.2617C23.6663 29.3893 24.04 29.3812 24.3707 29.222L28.6546 27.1607C29.1048 26.9441 29.391 26.4885 29.391 25.9887V12.0117C29.391 11.5119 29.1048 11.0563 28.6546 10.8397L24.3707 8.77829C23.9367 8.56941 23.4286 8.62058 23.0476 8.89756C22.9932 8.93713 22.9413 8.98131 22.8927 9.02999L14.6917 16.5119L11.1196 13.8003C10.787 13.5479 10.3219 13.5686 10.0131 13.8495L8.86735 14.8917C8.48958 15.2354 8.48914 15.8297 8.86641 16.1739L11.9643 19.0001L8.86641 21.8264C8.48914 22.1706 8.48958 22.765 8.86735 23.1086L10.0131 24.1508C10.3219 24.4317 10.787 24.4524 11.1196 24.2L14.6917 21.4884L22.8927 28.9703C23.0224 29.1001 23.1748 29.1979 23.3386 29.2617ZM24.1924 14.2767L17.9697 19.0001L24.1924 23.7236V14.2767Z" fill="url(#paint0_linear_133_58)"/>
</g>
<defs>
<filter id="filter0_d_133_58" x="0.250401" y="5.29056" width="37.4865" height="32.3926" filterUnits="userSpaceOnUse" color-interpolation-filters="sRGB">
<feFlood flood-opacity="0" result="BackgroundImageFix"/>
<feColorMatrix in="SourceAlpha" type="matrix" values="0 0 0 0 0 0 0 0 0 0 0 0 0 0 0 0 0 0 127 0" result="hardAlpha"/>
<feOffset/>
<feGaussianBlur stdDeviation="4.16667"/>
<feColorMatrix type="matrix" values="0 0 0 0 0 0 0 0 0 0 0 0 0 0 0 0 0 0 0.25 0"/>
<feBlend mode="overlay" in2="BackgroundImageFix" result="effect1_dropShadow_133_58"/>
<feBlend mode="normal" in="SourceGraphic" in2="effect1_dropShadow_133_58" result="shape"/>
</filter>
<filter id="filter1_d_133_58" x="14.568" y="0.316685" width="23.1689" height="37.3668" filterUnits="userSpaceOnUse" color-interpolation-filters="sRGB">
<feFlood flood-opacity="0" result="BackgroundImageFix"/>
<feColorMatrix in="SourceAlpha" type="matrix" values="0 0 0 0 0 0 0 0 0 0 0 0 0 0 0 0 0 0 127 0" result="hardAlpha"/>
<feOffset/>
<feGaussianBlur stdDeviation="4.16667"/>
<feColorMatrix type="matrix" values="0 0 0 0 0 0 0 0 0 0 0 0 0 0 0 0 0 0 0.25 0"/>
<feBlend mode="overlay" in2="BackgroundImageFix" result="effect1_dropShadow_133_58"/>
<feBlend mode="normal" in="SourceGraphic" in2="effect1_dropShadow_133_58" result="shape"/>
</filter>
<linearGradient id="paint0_linear_133_58" x1="18.9874" y1="8.65015" x2="18.9874" y2="29.3502" gradientUnits="userSpaceOnUse">
<stop stop-color="white"/>
<stop offset="1" stop-color="white" stop-opacity="0"/>
</linearGradient>
</defs>
</svg>
