<svg width="30" height="30" viewBox="0 0 30 30" fill="none" xmlns="http://www.w3.org/2000/svg">
<g clip-path="url(#clip0_133_90)">
<path d="M5.3125 2.41805e-06H24.6875C25.3853 -0.000672159 26.0764 0.139803 26.7213 0.413387C27.3661 0.686972 27.952 1.0883 28.4455 1.59439C28.9389 2.10048 29.3302 2.70141 29.5969 3.36279C29.8637 4.02416 30.0007 4.73299 30 5.44872V24.5513C30.0007 25.267 29.8637 25.9758 29.5969 26.6372C29.3302 27.2986 28.9389 27.8995 28.4455 28.4056C27.952 28.9117 27.3661 29.313 26.7213 29.5866C26.0764 29.8602 25.3853 30.0007 24.6875 30H5.3125C4.61467 30.0007 3.92356 29.8602 3.27872 29.5866C2.63388 29.313 2.04797 28.9117 1.55453 28.4056C1.06109 27.8995 0.669798 27.2986 0.403053 26.6372C0.136308 25.9758 -0.000655355 25.267 2.35759e-06 24.5513V5.44872C-0.000655355 4.73299 0.136308 4.02416 0.403053 3.36279C0.669798 2.70141 1.06109 2.10048 1.55453 1.59439C2.04797 1.0883 2.63388 0.686972 3.27872 0.413387C3.92356 0.139803 4.61467 -0.000672159 5.3125 2.41805e-06Z" fill="#2965F1"/>
<path d="M7.34327 12.3671L7.63846 15.6611H15.0099V12.3671H7.34327ZM6.75 5.69995L7.04942 8.99397H15.0099V5.69995H6.75ZM15.0099 20.922L14.9954 20.9259L11.3269 19.9353L11.0923 17.3082H7.78564L8.24709 22.4803L14.9947 24.3533L15.0099 24.3492V20.922Z" fill="#EBEBEB"/>
<path d="M22.6553 12.3671L23.2499 5.69995H14.9984V8.99397H19.64L19.3402 12.3671H14.9984V15.6611H19.0546L18.6722 19.9332L14.9983 20.9248V24.3518L21.7513 22.4803L21.8008 21.9237L22.5749 13.2516L22.6553 12.3671Z" fill="white"/>
</g>
<defs>
<clipPath id="clip0_133_90">
<rect width="30" height="30" fill="white"/>
</clipPath>
</defs>
</svg>
