<svg width="22" height="22" viewBox="0 0 22 22" fill="none" xmlns="http://www.w3.org/2000/svg">
<path d="M20.5883 5.49984C19.8825 5.82067 19.1216 6.0315 18.3333 6.13234C19.14 5.6465 19.7633 4.8765 20.0566 3.95067C19.2958 4.409 18.4525 4.72984 17.5633 4.91317C16.8391 4.12484 15.8216 3.6665 14.6666 3.6665C12.5125 3.6665 10.7525 5.4265 10.7525 7.599C10.7525 7.91067 10.7891 8.21317 10.8533 8.49734C7.58995 8.33234 4.68412 6.76484 2.74995 4.39067C2.41079 4.96817 2.21829 5.6465 2.21829 6.3615C2.21829 7.72734 2.90579 8.93734 3.96912 9.62484C3.31829 9.62484 2.71329 9.4415 2.18162 9.1665V9.194C2.18162 11.1007 3.53829 12.6957 5.33495 13.0532C4.75812 13.211 4.15254 13.233 3.56579 13.1173C3.81476 13.8988 4.30236 14.5825 4.96005 15.0725C5.61774 15.5625 6.41245 15.8341 7.23245 15.849C5.84245 16.9494 4.11945 17.5442 2.34662 17.5357C2.03495 17.5357 1.72329 17.5173 1.41162 17.4807C3.15329 18.599 5.22495 19.2498 7.44329 19.2498C14.6666 19.2498 18.6358 13.2548 18.6358 8.05734C18.6358 7.88317 18.6358 7.71817 18.6266 7.544C19.3966 6.994 20.0566 6.29734 20.5883 5.49984Z" fill="#7A67F0"/>
</svg>
