<svg width="28" height="28" viewBox="0 0 28 28" fill="none" xmlns="http://www.w3.org/2000/svg">
<path d="M25.6667 12.7166V4.78325C25.6667 3.03325 24.92 2.33325 23.065 2.33325H18.3517C16.4967 2.33325 15.75 3.03325 15.75 4.78325V12.7166C15.75 14.4666 16.4967 15.1666 18.3517 15.1666H23.065C24.92 15.1666 25.6667 14.4666 25.6667 12.7166Z" stroke="#7A67F0" stroke-width="2.5" stroke-linecap="round" stroke-linejoin="round"/>
<path d="M25.6667 23.2167V21.1167C25.6667 19.3667 24.92 18.6667 23.065 18.6667H18.3517C16.4967 18.6667 15.75 19.3667 15.75 21.1167V23.2167C15.75 24.9667 16.4967 25.6667 18.3517 25.6667H23.065C24.92 25.6667 25.6667 24.9667 25.6667 23.2167Z" stroke="#7A67F0" stroke-width="2.5" stroke-linecap="round" stroke-linejoin="round"/>
<path d="M12.2499 15.2833V23.2166C12.2499 24.9666 11.5033 25.6666 9.64825 25.6666H4.93492C3.07992 25.6666 2.33325 24.9666 2.33325 23.2166V15.2833C2.33325 13.5333 3.07992 12.8333 4.93492 12.8333H9.64825C11.5033 12.8333 12.2499 13.5333 12.2499 15.2833Z" stroke="#7A67F0" stroke-width="2.5" stroke-linecap="round" stroke-linejoin="round"/>
<path d="M12.2499 4.78325V6.88325C12.2499 8.63325 11.5033 9.33325 9.64825 9.33325H4.93492C3.07992 9.33325 2.33325 8.63325 2.33325 6.88325V4.78325C2.33325 3.03325 3.07992 2.33325 4.93492 2.33325H9.64825C11.5033 2.33325 12.2499 3.03325 12.2499 4.78325Z" stroke="#7A67F0" stroke-width="2.5" stroke-linecap="round" stroke-linejoin="round"/>
</svg>
