<svg width="30" height="30" viewBox="0 0 30 30" fill="none" xmlns="http://www.w3.org/2000/svg">
<g clip-path="url(#clip0_133_110)">
<path d="M5.3125 2.41805e-06H24.6875C25.3853 -0.000672159 26.0764 0.139803 26.7213 0.413387C27.3661 0.686972 27.952 1.0883 28.4455 1.59439C28.9389 2.10048 29.3302 2.70141 29.5969 3.36279C29.8637 4.02416 30.0007 4.73299 30 5.44872V24.5513C30.0007 25.267 29.8637 25.9758 29.5969 26.6372C29.3302 27.2986 28.9389 27.8995 28.4455 28.4056C27.952 28.9117 27.3661 29.313 26.7213 29.5866C26.0764 29.8602 25.3853 30.0007 24.6875 30H5.3125C4.61467 30.0007 3.92356 29.8602 3.27872 29.5866C2.63388 29.313 2.04797 28.9117 1.55453 28.4056C1.06109 27.8995 0.669798 27.2986 0.403053 26.6372C0.136308 25.9758 -0.000655355 25.267 2.35759e-06 24.5513V5.44872C-0.000655355 4.73299 0.136308 4.02416 0.403053 3.36279C0.669798 2.70141 1.06109 2.10048 1.55453 1.59439C2.04797 1.0883 2.63388 0.686972 3.27872 0.413387C3.92356 0.139803 4.61467 -0.000672159 5.3125 2.41805e-06Z" fill="#F7DF1E"/>
<path d="M20.2033 23.4737C20.8076 24.4604 21.5938 25.1856 22.9842 25.1856C24.1523 25.1856 24.8985 24.6018 24.8985 23.7951C24.8985 22.8285 24.1319 22.4861 22.8461 21.9237L22.1414 21.6213C20.1071 20.7547 18.7557 19.6689 18.7557 17.3737C18.7557 15.2594 20.3666 13.6499 22.8842 13.6499C24.6766 13.6499 25.9652 14.2737 26.8938 15.907L24.6985 17.3166C24.2152 16.4499 23.6938 16.1085 22.8842 16.1085C22.0585 16.1085 21.5352 16.6323 21.5352 17.3166C21.5352 18.1623 22.059 18.5047 23.2685 19.0285L23.9733 19.3304C26.3685 20.3575 27.7209 21.4047 27.7209 23.7589C27.7209 26.297 25.7271 27.6875 23.0495 27.6875C20.4314 27.6875 18.74 26.4399 17.9123 24.8047L20.2033 23.4737ZM10.2447 23.718C10.6876 24.5037 11.0904 25.168 12.059 25.168C12.9852 25.168 13.5695 24.8056 13.5695 23.3966V13.8109H16.3885V23.4347C16.3885 26.3537 14.6771 27.6823 12.179 27.6823C9.92186 27.6823 8.61471 26.5142 7.94995 25.1073L10.2447 23.718Z" fill="black"/>
</g>
<defs>
<clipPath id="clip0_133_110">
<rect width="30" height="30" fill="white"/>
</clipPath>
</defs>
</svg>
