<svg width="30" height="30" viewBox="0 0 30 30" fill="none" xmlns="http://www.w3.org/2000/svg">
<g clip-path="url(#clip0_133_101)">
<path d="M5.3125 2.41805e-06H24.6875C25.3853 -0.000672159 26.0764 0.139803 26.7213 0.413387C27.3661 0.686972 27.952 1.0883 28.4455 1.59439C28.9389 2.10048 29.3302 2.70141 29.5969 3.36279C29.8637 4.02416 30.0007 4.73299 30 5.44872V24.5513C30.0007 25.267 29.8637 25.9758 29.5969 26.6372C29.3302 27.2986 28.9389 27.8995 28.4455 28.4056C27.952 28.9117 27.3661 29.313 26.7213 29.5866C26.0764 29.8602 25.3853 30.0007 24.6875 30H5.3125C4.61467 30.0007 3.92356 29.8602 3.27872 29.5866C2.63388 29.313 2.04797 28.9117 1.55453 28.4056C1.06109 27.8995 0.669798 27.2986 0.403053 26.6372C0.136308 25.9758 -0.000655355 25.267 2.35759e-06 24.5513V5.44872C-0.000655355 4.73299 0.136308 4.02416 0.403053 3.36279C0.669798 2.70141 1.06109 2.10048 1.55453 1.59439C2.04797 1.0883 2.63388 0.686972 3.27872 0.413387C3.92356 0.139803 4.61467 -0.000672159 5.3125 2.41805e-06Z" fill="#000B1D"/>
<g clip-path="url(#clip1_133_101)">
<path d="M23.2201 16.3646C22.4252 16.3688 21.7342 16.5621 21.1557 16.8477C20.9434 16.4234 20.7312 16.0453 20.6937 15.768C20.6521 15.4445 20.6022 15.2471 20.6521 14.8606C20.702 14.4741 20.9268 13.9237 20.9226 13.8817C20.9185 13.8397 20.8727 13.6422 20.4149 13.638C19.957 13.6338 19.5616 13.7263 19.5158 13.8481C19.4701 13.9699 19.3827 14.2472 19.3244 14.5329C19.2453 14.953 18.4087 16.4528 17.9301 17.2384C17.7761 16.9318 17.6429 16.6629 17.6138 16.4486C17.5721 16.1251 17.5222 15.9277 17.5721 15.5412C17.6221 15.1547 17.8468 14.6043 17.8427 14.5623C17.8385 14.5203 17.7927 14.3228 17.3349 14.3186C16.8771 14.3144 16.4817 14.4069 16.4359 14.5287C16.3901 14.6505 16.3402 14.9362 16.2444 15.2135C16.1487 15.4908 15.0374 17.9947 14.7461 18.6416C14.5962 18.9735 14.4672 19.2382 14.3757 19.4188C14.3757 19.4188 14.3715 19.4314 14.359 19.4525C14.2799 19.6079 14.2341 19.6919 14.2341 19.6919C14.2341 19.6919 14.2341 19.6919 14.2341 19.6961C14.1717 19.8096 14.1051 19.9146 14.0718 19.9146C14.0468 19.9146 14.0011 19.6121 14.0801 19.2004C14.2466 18.3307 14.642 16.978 14.6379 16.9318C14.6379 16.9065 14.7128 16.6713 14.3798 16.5494C14.0552 16.4276 13.9386 16.6293 13.9095 16.6293C13.8804 16.6293 13.8596 16.7007 13.8596 16.7007C13.8596 16.7007 14.2217 15.1799 13.1686 15.1799C12.511 15.1799 11.6037 15.9067 11.1542 16.5621C10.8712 16.7175 10.2677 17.0494 9.62253 17.4065C9.37697 17.5451 9.12308 17.6838 8.88584 17.814C8.86919 17.7972 8.85254 17.7762 8.83589 17.7594C7.56229 16.3856 5.20654 15.4151 5.30643 13.5708C5.34389 12.8986 5.5728 11.1341 9.83064 8.99155C13.3351 7.24806 16.1237 7.7312 16.6065 8.80249C17.2974 10.3317 15.1123 13.1717 11.4913 13.5834C10.1095 13.7389 9.38529 13.2011 9.20216 12.9995C9.0107 12.7894 8.98157 12.7768 8.91081 12.8188C8.79427 12.8818 8.86919 13.0709 8.91081 13.1801C9.01903 13.4658 9.46437 13.9699 10.2177 14.2178C10.8836 14.4363 12.5027 14.5581 14.4631 13.7935C16.6565 12.9364 18.3713 10.5544 17.8677 8.55883C17.364 6.53386 14.0344 5.86588 10.8836 6.99599C9.0107 7.66818 6.9796 8.72687 5.5187 10.1049C3.7831 11.7433 3.5084 13.1675 3.62078 13.7641C4.0245 15.8815 6.91716 17.2594 8.07423 18.2803C8.01596 18.3139 7.96185 18.3433 7.91607 18.3686C7.33754 18.6584 5.13162 19.8222 4.58222 21.0531C3.95791 22.4479 4.68211 23.4478 5.16076 23.5822C6.64663 23.9981 8.17412 23.2503 8.99405 22.0152C9.81399 20.78 9.7141 19.1752 9.33535 18.44C9.33118 18.4316 9.32702 18.4232 9.3187 18.4148C9.46853 18.3265 9.62253 18.2341 9.77237 18.1459C10.0679 17.9694 10.3592 17.8056 10.6089 17.6712C10.4674 18.0619 10.3634 18.5282 10.3134 19.2004C10.251 19.9902 10.5715 21.0153 10.9919 21.4186C11.1792 21.5951 11.3997 21.5993 11.5413 21.5993C12.0324 21.5993 12.253 21.1875 12.4985 20.7002C12.7982 20.1036 13.0688 19.4104 13.0688 19.4104C13.0688 19.4104 12.7316 21.2842 13.6473 21.2842C13.9803 21.2842 14.3174 20.8472 14.4672 20.6246C14.4672 20.6288 14.4672 20.6288 14.4672 20.6288C14.4672 20.6288 14.4755 20.6162 14.4922 20.5868C14.5255 20.5322 14.5463 20.4985 14.5463 20.4985C14.5463 20.4985 14.5463 20.4943 14.5463 20.4901C14.6795 20.2549 14.9792 19.7213 15.4245 18.8349C15.9989 17.6922 16.5524 16.2638 16.5524 16.2638C16.5524 16.2638 16.6024 16.6125 16.773 17.1922C16.8729 17.5325 17.081 17.9064 17.2475 18.2677C17.1143 18.4568 17.0311 18.5618 17.0311 18.5618C17.0311 18.5618 17.0311 18.5618 17.0352 18.566C16.927 18.7088 16.8105 18.8643 16.6815 19.0155C16.2278 19.5617 15.6867 20.1877 15.6118 20.3683C15.5244 20.5826 15.5452 20.738 15.7117 20.864C15.8324 20.9565 16.0488 20.9691 16.2694 20.9565C16.6773 20.9271 16.9645 20.8262 17.106 20.7632C17.3266 20.6834 17.5846 20.5616 17.826 20.3809C18.2714 20.049 18.5419 19.5743 18.5169 18.9483C18.5045 18.6038 18.3921 18.2593 18.2547 17.9358C18.2964 17.877 18.3338 17.8182 18.3754 17.7594C19.0788 16.7217 19.6241 15.5832 19.6241 15.5832C19.6241 15.5832 19.674 15.9319 19.8447 16.5116C19.9279 16.8057 20.0985 17.125 20.2484 17.4359C19.5866 17.9778 19.1787 18.608 19.033 19.0197C18.7708 19.7843 18.9748 20.1288 19.3619 20.2087C19.5367 20.2465 19.7864 20.1625 19.9695 20.0826C20.2026 20.007 20.4773 19.8768 20.7395 19.6835C21.1849 19.3516 21.6135 18.8895 21.5886 18.2635C21.5761 17.9778 21.5012 17.6964 21.3971 17.4233C21.959 17.188 22.6832 17.0578 23.6072 17.167C25.5884 17.4023 25.9796 18.65 25.9047 19.1752C25.8298 19.7003 25.4135 19.986 25.2762 20.0742C25.1388 20.1625 25.0931 20.1919 25.1056 20.2549C25.1222 20.3473 25.1888 20.3431 25.3053 20.3263C25.4677 20.2969 26.3459 19.902 26.3833 18.9357C26.4458 17.7006 25.2804 16.352 23.2201 16.3646ZM7.93688 21.5656C7.27927 22.2882 6.3636 22.5613 5.9682 22.3303C5.54367 22.0824 5.71015 21.0153 6.5176 20.2507C7.00873 19.7843 7.64137 19.3516 8.06174 19.087C8.15747 19.0281 8.29898 18.9441 8.46963 18.8391C8.49876 18.8223 8.51541 18.8139 8.51541 18.8139C8.54871 18.7929 8.58201 18.7719 8.6153 18.7509C8.91081 19.8432 8.62779 20.8052 7.93688 21.5656ZM12.7233 18.2803C12.4944 18.8433 12.0157 20.2843 11.7244 20.2045C11.4747 20.1372 11.3207 19.0449 11.6744 17.9652C11.8534 17.4233 12.2322 16.7763 12.4528 16.5242C12.8107 16.1209 13.2061 15.9865 13.3018 16.1503C13.4225 16.3646 12.8648 17.9274 12.7233 18.2803ZM16.6731 20.1877C16.5774 20.2381 16.4858 20.2717 16.4442 20.2465C16.4151 20.2297 16.4858 20.1625 16.4858 20.1625C16.4858 20.1625 16.9811 19.6247 17.1767 19.381C17.2891 19.2382 17.4223 19.0701 17.5638 18.8811C17.5638 18.8979 17.5638 18.9189 17.5638 18.9357C17.5638 19.5785 16.9478 20.0112 16.6731 20.1877ZM19.7198 19.4861C19.649 19.4357 19.6615 19.2676 19.8988 18.7425C19.9903 18.5366 20.2068 18.1921 20.5772 17.8602C20.6188 17.9947 20.6479 18.1249 20.6438 18.2467C20.6396 19.0575 20.0652 19.36 19.7198 19.4861Z" fill="#CD6799"/>
</g>
</g>
<defs>
<clipPath id="clip0_133_101">
<rect width="30" height="30" fill="white"/>
</clipPath>
<clipPath id="clip1_133_101">
<rect width="22.8" height="17.25" fill="white" transform="translate(3.59998 6.44995)"/>
</clipPath>
</defs>
</svg>
