<svg width="31" height="30" viewBox="0 0 31 30" fill="none" xmlns="http://www.w3.org/2000/svg">
<g clip-path="url(#clip0_133_79)">
<path d="M5.8125 2.41805e-06H25.1875C25.8853 -0.000672159 26.5764 0.139803 27.2213 0.413387C27.8661 0.686972 28.452 1.0883 28.9455 1.59439C29.4389 2.10048 29.8302 2.70141 30.0969 3.36279C30.3637 4.02416 30.5007 4.73299 30.5 5.44872V24.5513C30.5007 25.267 30.3637 25.9758 30.0969 26.6372C29.8302 27.2986 29.4389 27.8995 28.9455 28.4056C28.452 28.9117 27.8661 29.313 27.2213 29.5866C26.5764 29.8602 25.8853 30.0007 25.1875 30H5.8125C5.11467 30.0007 4.42356 29.8602 3.77872 29.5866C3.13388 29.313 2.54797 28.9117 2.05453 28.4056C1.56109 27.8995 1.1698 27.2986 0.903053 26.6372C0.636308 25.9758 0.499345 25.267 0.500002 24.5513V5.44872C0.499345 4.73299 0.636308 4.02416 0.903053 3.36279C1.1698 2.70141 1.56109 2.10048 2.05453 1.59439C2.54797 1.0883 3.13388 0.686972 3.77872 0.413387C4.42356 0.139803 5.11467 -0.000672159 5.8125 2.41805e-06Z" fill="#F16529"/>
<path d="M10.8499 8.99397H15.5099V5.69995H7.25L7.3288 6.58366L8.13846 15.6611H15.5099V12.3671H11.151L10.8499 8.99397ZM11.5923 17.3082H8.28564L8.74709 22.4803L15.4947 24.3533L15.5099 24.3492V20.922L15.4954 20.9259L11.8269 19.9353L11.5923 17.3082Z" fill="#EBEBEB"/>
<path d="M15.4984 15.6611H19.5546L19.1722 19.9332L15.4983 20.9248V24.3518L22.2513 22.4803L22.3008 21.9237L23.0749 13.2516L23.1553 12.3671H15.4984V15.6611ZM15.4984 8.98593V8.99397H23.455L23.521 8.25362L23.6712 6.58366L23.7499 5.69995H15.4984V8.98603V8.98593Z" fill="white"/>
</g>
<defs>
<clipPath id="clip0_133_79">
<rect width="30" height="30" fill="white" transform="translate(0.5)"/>
</clipPath>
</defs>
</svg>
