<svg width="22" height="22" viewBox="0 0 22 22" fill="none" xmlns="http://www.w3.org/2000/svg">
<path d="M11.2236 3.6665C11.7131 3.66925 12.9378 3.68117 14.2394 3.73342L14.7014 3.75359C16.0113 3.815 17.3203 3.92134 17.9703 4.10192C18.8365 4.34575 19.5167 5.05525 19.7468 5.95542C20.1134 7.38542 20.1593 10.1739 20.1648 10.8495L20.1657 10.9888V11.1483C20.1593 11.8239 20.1134 14.6133 19.7468 16.0424C19.5139 16.9453 18.8328 17.6558 17.9703 17.8959C17.3203 18.0765 16.0113 18.1828 14.7014 18.2443L14.2394 18.2653C12.9378 18.3167 11.7131 18.3295 11.2236 18.3313L11.0082 18.3323H10.7744C9.73858 18.3258 5.40642 18.2791 4.02775 17.8959C3.16242 17.6521 2.48134 16.9426 2.25125 16.0424C1.88459 14.6124 1.83875 11.8239 1.83325 11.1483V10.8495C1.83875 10.1739 1.88459 7.3845 2.25125 5.95542C2.48409 5.0525 3.16517 4.34209 4.02867 4.10284C5.40642 3.71875 9.7395 3.672 10.7753 3.6665H11.2236ZM9.16567 7.7915V14.2082L14.6657 10.9998L9.16567 7.7915Z" fill="#7A67F0"/>
</svg>
