<svg width="28" height="28" viewBox="0 0 28 28" fill="none" xmlns="http://www.w3.org/2000/svg">
<path d="M15.1783 3.40679L22.0616 6.46345C24.045 7.33845 24.045 8.78512 22.0616 9.66012L15.1783 12.7168C14.3966 13.0668 13.1133 13.0668 12.3316 12.7168L5.44832 9.66012C3.46498 8.78512 3.46498 7.33845 5.44832 6.46345L12.3316 3.40679C13.1133 3.05679 14.3966 3.05679 15.1783 3.40679Z" stroke="#7A67F0" stroke-width="2.5" stroke-linecap="round" stroke-linejoin="round"/>
<path d="M3.5 12.8333C3.5 13.8133 4.235 14.9449 5.13333 15.3416L13.055 18.8649C13.6617 19.1333 14.35 19.1333 14.945 18.8649L22.8667 15.3416C23.765 14.9449 24.5 13.8133 24.5 12.8333" stroke="#7A67F0" stroke-width="2.5" stroke-linecap="round" stroke-linejoin="round"/>
<path d="M3.5 18.6667C3.5 19.7517 4.14167 20.7317 5.13333 21.1751L13.055 24.6984C13.6617 24.9667 14.35 24.9667 14.945 24.6984L22.8667 21.1751C23.8583 20.7317 24.5 19.7517 24.5 18.6667" stroke="#7A67F0" stroke-width="2.5" stroke-linecap="round" stroke-linejoin="round"/>
</svg>
